<?xml version="1.0" encoding="utf-8"?>

<!-- License Agreement at http://iconmonstr.com/license/ -->

<!DOCTYPE svg PUBLIC "-//W3C//DTD SVG 1.1//EN" "http://www.w3.org/Graphics/SVG/1.1/DTD/svg11.dtd">
<svg version="1.1" xmlns="http://www.w3.org/2000/svg" xmlns:xlink="http://www.w3.org/1999/xlink" x="0px" y="0px"
	 width="512px" height="512px" viewBox="0 0 512 512" enable-background="new 0 0 512 512" xml:space="preserve">
<path id="fingerprint-12-icon" d="M307.384,418.85c16.562,0,32.075-4.564,45.357-12.494L406.386,460l29.245-29.248l-53.246-53.244
	c8.709-13.727,13.763-29.992,13.763-47.422c0-48.943-39.819-88.76-88.764-88.76c-48.943,0-88.761,39.816-88.761,88.76
	S258.44,418.85,307.384,418.85z M307.384,274.414c30.699,0,55.675,24.975,55.675,55.672c0,30.699-24.976,55.672-55.675,55.672
	c-30.696,0-55.671-24.973-55.671-55.672C251.713,299.389,276.688,274.414,307.384,274.414z M76.371,243.669
	c-0.089-5.107,3.274-9.637,8.184-11.041c39.322-11.252,68.229-32.328,79.243-58.545c5.274-12.564,13.708-22.809,24.386-29.627
	c9.765-6.234,21.212-9.529,33.104-9.529c21.05,0,40.959,10.281,51.957,26.83c10.385,15.627,11.846,34.563,4.168,53.403
	c-11.139,2.906-21.645,7.394-31.264,13.206c4.003-6.702,7.58-13.701,10.654-21.02c12.335-29.363-11.19-50.373-35.516-50.373
	c-14.653,0-29.597,7.625-37.16,25.645c-13.631,32.449-47.93,58.16-93.911,71.303C83.36,255.878,76.496,250.804,76.371,243.669z
	 M79.084,194.757c0.624-4.773,3.617-8.004,7.413-9.258c23.903-7.895,30.977-20.006,39.376-34.434
	c5.335-9.164,11.383-19.549,21.921-29.334c23.929-22.219,56.351-32.949,88.943-29.439c31.111,3.35,58.661,19.217,75.583,43.537
	c18.808,27.027,18.849,53.853,15.688,77.294c-6.7-1.179-13.591-1.797-20.624-1.797c-0.461,0-0.919,0.013-1.379,0.018
	c2.91-20.618,2.979-41.707-11.781-62.921c-13.273-19.076-35.088-31.547-59.847-34.211c-26.247-2.822-52.334,5.805-71.581,23.676
	c-8.136,7.555-12.864,15.674-17.868,24.271c-9.704,16.666-19.671,33.777-51.686,44.295C85.645,208.95,78.063,202.661,79.084,194.757
	z M93.04,121.319c4.341-10.059,8.819-15.984,16.097-24.178c34.144-37.908,85.03-52.152,134.877-45.607
	c57.251,7.523,104.621,41.297,120.684,86.041c13.601,37.887,8.452,68.584,4.492,91.137c-6.498-3.977-13.406-7.345-20.646-10.027
	c3.341-20.045,5.929-44.335-4.599-73.66c-13.301-37.055-53.654-65.172-102.804-71.631c-51.712-6.795-98.324,11.871-124.695,49.932
	c-2.392,3.453-4.532,6.689-6.599,9.82c-3.107,4.703-9.091,5.949-13.775,2.734C91.315,132.616,90.209,127.882,93.04,121.319z
	 M94.012,301.087c-6.169,1.492-12.254-2.574-13.28-8.781c-0.954-5.791,2.726-11.338,8.429-12.723
	c59.981-14.574,105.504-47.648,123.515-90.525c2.36-5.613,8.821-8.252,14.435-5.895c5.614,2.357,8.252,8.818,5.895,14.432
	C209.542,253.448,153.101,286.769,94.012,301.087z M214.884,405.241c-11.572,5.998-29.127,15.094-59.305,25.525
	c-7.594,2.625-15.287-4.928-13.448-13.084c0.853-3.771,3.589-6.834,7.241-8.105c26.628-9.271,42.722-17.371,53.576-22.984
	c3.551,6.537,7.702,12.702,12.372,18.429C215.174,405.097,215.033,405.164,214.884,405.241z M270.741,451.647
	c-0.459,8.572-10.233,12.129-16.136,9.506c-32.648-14.512-22.594-14.951-51.54-1.352c-6.13,2.881-15.872-1.014-16.249-9.531
	c-0.189-4.279,2.216-8.25,6.098-10.062c40.422-18.883,29.03-17.617,71.533,1.189C268.47,443.179,270.976,447.257,270.741,451.647z
	 M189.762,313.675c-24.761,15.08-53.277,26.832-83.889,34.594c-5.45,1.381-11.035-1.631-12.863-6.949
	c-1.019-2.967-0.738-6.229,0.754-8.984c1.492-2.758,4.067-4.77,7.107-5.543c36.484-9.286,70.742-24.846,98.771-46.631
	C194.785,290.604,191.402,301.864,189.762,313.675z M194.23,366.159c-15.747,7.627-37.406,16.543-68.312,25.684
	c-5.021,1.484-10.101-0.969-12.219-4.9c-3.649-6.26-0.47-14.336,6.505-16.406c32.493-9.646,54.099-18.959,69.229-26.619
	C190.325,351.575,191.947,359.013,194.23,366.159z"/>
</svg>
