<?xml version="1.0" encoding="utf-8"?>

<!-- License Agreement at http://iconmonstr.com/license/ -->

<!DOCTYPE svg PUBLIC "-//W3C//DTD SVG 1.1//EN" "http://www.w3.org/Graphics/SVG/1.1/DTD/svg11.dtd">
<svg version="1.1" xmlns="http://www.w3.org/2000/svg" xmlns:xlink="http://www.w3.org/1999/xlink" x="0px" y="0px"
	 width="512px" height="512px" viewBox="0 0 512 512" style="enable-background:new 0 0 512 512;" xml:space="preserve">
<path id="id-card-4-icon" d="M422,146v220H90V146H422z M462,106H50v300h412V106z M257.333,292.961
	c-20.931-4.83-40.414-9.057-30.979-26.845c28.723-54.149,7.613-83.108-22.715-83.108c-30.928,0-51.516,30.069-22.717,83.108
	c9.719,17.896-10.496,22.119-30.979,26.845c-20.922,4.824-19.312,15.854-19.312,35.87h146.015
	C276.646,308.815,278.254,297.785,257.333,292.961z M383,185.5h-98.666v30H383V185.5z M383,242.166h-98.666v30H383V242.166z
	 M383,298.831h-64.666v30H383V298.831z"/>
</svg>
