<?xml version="1.0" encoding="utf-8"?>

<!-- The icon can be used freely in both personal and commercial projects with no attribution required, but always appreciated. 
You may NOT sub-license, resell, rent, redistribute or otherwise transfer the icon without express written permission from iconmonstr.com -->

<!DOCTYPE svg PUBLIC "-//W3C//DTD SVG 1.1//EN" "http://www.w3.org/Graphics/SVG/1.1/DTD/svg11.dtd">
<svg version="1.1" xmlns="http://www.w3.org/2000/svg" xmlns:xlink="http://www.w3.org/1999/xlink" x="0px" y="0px"
	 width="512px" height="512px" viewBox="0 0 512 512" enable-background="new 0 0 512 512" xml:space="preserve">
<path id="lock-8-icon" d="M195.334,223.333h-50v-62.666C145.334,99.645,194.979,50,256,50c61.022,0,110.667,49.645,110.667,110.667
	v62.666h-50v-62.666C316.667,127.215,289.452,100,256,100c-33.451,0-60.666,27.215-60.666,60.667V223.333z M404,253.333V462H108
	V253.333H404z M313.818,394.524l-36.307-36.303l36.303-36.306l-19.521-19.506l-36.296,36.301l-36.302-36.296l-19.515,19.502
	l36.308,36.306l-36.304,36.31l19.503,19.516l36.312-36.312l36.311,36.308L313.818,394.524z"/>
</svg>
