<?xml version="1.0" encoding="utf-8"?>

<!-- License Agreement at http://iconmonstr.com/license/ -->

<!DOCTYPE svg PUBLIC "-//W3C//DTD SVG 1.1//EN" "http://www.w3.org/Graphics/SVG/1.1/DTD/svg11.dtd">
<svg version="1.1" xmlns="http://www.w3.org/2000/svg" xmlns:xlink="http://www.w3.org/1999/xlink" x="0px" y="0px"
	 width="512px" height="512px" viewBox="0 0 512 512" enable-background="new 0 0 512 512" xml:space="preserve">
<path id="logout-5-icon" d="M462,94.661v322.678l-96.6-74.269V94.661H462z M187.873,208.629l-45.271,44.821
	c-5.56,5.506-10.123,11.936-13.49,19.002l-19.44,40.83c-2.935,6.169-9.153,10.1-15.984,10.106L50,323.427v32.888l58.176-0.01
	c7.46-0.002,14.582-3.121,19.639-8.605l20.285-21.997c12.458-13.509,41.18,2.648,41.438,21.618v56.12h33.853v-60.503
	c0-8.601-0.456-15.041-6.447-24.482l-18.935-26.963l35.002-37.927l21.441,28.871c4.054,5.599,8.861,8.854,18.203,8.854h48.147
	v-28.322h-34.973c-7.659,0-10.9-4.813-13.21-8.227c-12.597-18.619-20.674-31.068-28.551-38.227l-49.691-45.859
	c-7.239-6.679-15.534-9.821-25.208-7.971l-51.614,9.843l5.904,27.607l37.619-6.592c5.016-0.879,10.158,0.557,13.994,3.906
	L187.873,208.629z M269.604,206.486c-17.599,3.367-34.596-8.172-37.963-25.771c-3.367-17.6,8.173-34.596,25.771-37.963
	c17.6-3.366,34.597,8.174,37.964,25.773C298.739,186.124,287.201,203.12,269.604,206.486z"/>
</svg>
