<?xml version="1.0" encoding="utf-8"?>

<!-- License Agreement at http://iconmonstr.com/license/ -->

<!DOCTYPE svg PUBLIC "-//W3C//DTD SVG 1.1//EN" "http://www.w3.org/Graphics/SVG/1.1/DTD/svg11.dtd">
<svg version="1.1" xmlns="http://www.w3.org/2000/svg" xmlns:xlink="http://www.w3.org/1999/xlink" x="0px" y="0px"
	 width="512px" height="512px" viewBox="0 0 512 512" enable-background="new 0 0 512 512" xml:space="preserve">
<path id="qr-code-icon" fill-rule="evenodd" clip-rule="evenodd" d="M50.206,50v136.921h136.921V50H50.206z M167.744,167.538H69.589
	V69.383h98.154V167.538z M324.461,50v136.921h137.333V50H324.461z M441.998,167.538h-98.154V69.383h98.154V167.538z M89.385,89.592
	h58.562v58.562H89.385V89.592z M363.64,89.592h58.562v58.562H363.64V89.592z M363.64,285.487v39.18h-19.384v-39.18H363.64z
	 M461.794,285.487v19.384h-19.796v-19.384H461.794z M50.206,324.667V462h136.921V324.667H50.206z M167.744,442.204H69.589V344.05
	h98.154V442.204z M89.385,363.846h58.562v58.562H89.385V363.846z M402.818,383.229v19.796h-19.795v-19.796H402.818z
	 M246.102,187.333V167.95h19.383v-19.796h19.796v-39.179h-39.179v39.179h-19.796v39.179h-19.383v-39.179h19.383v-19.383h-19.383
	v-19.796h39.179V89.592h-39.179V69.796h39.179V50.413h58.563v97.742h-19.384v19.796h19.384v19.383h-19.384V167.95h-19.796v19.383
	H246.102v19.795h-19.796v19.384h-19.383v19.795h19.383v-19.795h39.179v-19.384h19.796v19.384h19.384v-19.384h19.796v19.384h19.383
	v-19.384h19.796v19.384h-19.796v19.795h19.796v19.383h-19.384v19.796h-39.591v39.18h19.796v19.383h-19.796v-19.383h-19.384v19.383
	h-19.796v19.796h19.796v19.384h18.971v-19.384h20.209v19.384h39.179v-19.384h-19.796V344.05h19.796v-19.383h19.384v-19.796h19.795
	v19.796h-19.795v19.383h19.795v-19.383h39.18v58.562h-19.796v-19.384h-39.179v19.384H363.64v39.179h-19.796v19.796h-39.179V462
	h-19.384v-19.796h-19.796v-19.796h19.796v-19.383h-58.975v39.179h39.179V462h-58.562v-98.154h19.383V344.05h-19.383v-39.179h19.383
	v39.179h19.796v-19.383h39.179v-39.18h-39.179v-19.796h-19.383v19.796h-39.592v19.384h-19.383v-19.384h19.383v-19.796h-19.383
	v-19.383h19.383v-19.795h-19.383v19.795h-19.796v-19.795h-39.179v19.795h19.796v19.383h19.383v39.18h-19.383v-19.384H89.385v19.384
	H50.206v-19.384h19.383v-19.796h39.179v-19.383H89.385v-19.795H50.206v-19.384h97.742v19.384h19.796v-19.384h58.562v-19.795H246.102
	z M265.485,246.308v19.383h19.796v-19.383H265.485z M304.665,246.308v19.383h19.796v-19.383H304.665z M304.665,403.025v19.383
	h19.796v-19.383H304.665z M265.485,69.796v19.796h19.796V69.796H265.485z M422.202,403.025v38.767h19.796V462h-19.796v-20.208
	h-39.179V462H363.64v-39.592h39.179v-19.383H422.202z M461.794,226.513v19.795h-19.796v19.383h-19.796v19.796h-39.179v-78.358
	h19.795v19.384h19.384v-19.384h19.796v19.384h-19.796v19.795h19.796v-19.795H461.794z"/>
</svg>
