<?xml version="1.0" encoding="utf-8"?>

<!-- The icon can be used freely in both personal and commercial projects with no attribution required, but always appreciated. 
You may NOT sub-license, resell, rent, redistribute or otherwise transfer the icon without express written permission from iconmonstr.com -->

<!DOCTYPE svg PUBLIC "-//W3C//DTD SVG 1.1//EN" "http://www.w3.org/Graphics/SVG/1.1/DTD/svg11.dtd">
<svg version="1.1" xmlns="http://www.w3.org/2000/svg" xmlns:xlink="http://www.w3.org/1999/xlink" x="0px" y="0px"
	 width="512px" height="512px" viewBox="0 0 512 512" enable-background="new 0 0 512 512" xml:space="preserve">
<path id="server-4-icon" d="M430.528,153.638H81.472v87.488h349.057V153.638z M104.687,216.569l15.35-38.375h18.541l-15.35,38.375
	H104.687z M134.741,216.569l15.348-38.375h18.541l-15.35,38.375H134.741z M164.792,216.569l15.348-38.375h18.541l-15.35,38.375
	H164.792z M194.845,216.569l15.348-38.375h18.539l-15.346,38.375H194.845z M243.437,216.569h-18.539l15.35-38.375h18.541
	L243.437,216.569z M389.085,210.197c-7.074,0-12.814-5.739-12.814-12.816s5.74-12.814,12.814-12.814
	c7.08,0,12.818,5.737,12.818,12.814S396.165,210.197,389.085,210.197z M411.284,130.616h-309.82L162.563,50h186.871L411.284,130.616
	z M430.528,264.146H81.472v87.49h349.057V264.146z M104.687,327.08l15.35-38.375h18.541l-15.35,38.375H104.687z M134.741,327.08
	l15.348-38.375h18.541l-15.35,38.375H134.741z M164.792,327.08l15.348-38.375h18.541l-15.35,38.375H164.792z M194.845,327.08
	l15.348-38.375h18.539l-15.346,38.375H194.845z M243.437,327.08h-18.539l15.35-38.375h18.541L243.437,327.08z M389.085,320.707
	c-7.074,0-12.814-5.736-12.814-12.814c0-7.08,5.74-12.814,12.814-12.814c7.08,0,12.818,5.734,12.818,12.814
	C401.903,314.971,396.165,320.707,389.085,320.707z M430.528,374.51H81.472V462h349.057V374.51z M104.687,437.443l15.35-38.375
	h18.541l-15.35,38.375H104.687z M134.741,437.443l15.348-38.375h18.541l-15.35,38.375H134.741z M164.792,437.443l15.348-38.375
	h18.541l-15.35,38.375H164.792z M194.845,437.443l15.348-38.375h18.539l-15.346,38.375H194.845z M243.437,437.443h-18.539
	l15.35-38.375h18.541L243.437,437.443z M389.085,431.068c-7.074,0-12.814-5.734-12.814-12.812c0-7.08,5.74-12.814,12.814-12.814
	c7.08,0,12.818,5.734,12.818,12.814C401.903,425.334,396.165,431.068,389.085,431.068z"/>
</svg>
